<?xml version="1.0"?>
<svg xmlns="http://www.w3.org/2000/svg" width="512" height="512" viewBox="0 0 512 512"><path d="M424,280h-9.66L351.79,14.17A8,8,0,0,0,344,8H168a8,8,0,0,0-7.79,6.17L97.66,280H88a8,8,0,0,0-8,8v32a8,8,0,0,0,8,8H224v53.19L164.16,456H137a8,8,0,0,0-7.7,5.83l-9,32A8,8,0,0,0,128,504H384a8,8,0,0,0,7.76-9.94l-8-32A8,8,0,0,0,376,456H347.84L288,381.19V328h88v32a8.451,8.451,0,0,0,.12,1.34,24,24,0,1,0,15.76,0A8.451,8.451,0,0,0,392,360V328h32a8,8,0,0,0,8-8V288A8,8,0,0,0,424,280ZM174.34,24H337.66L397.9,280H114.1ZM369.75,472l4,16H138.56l4.5-16Zm-42.4-16H184.65l53.6-67a8.028,8.028,0,0,0,1.75-5V328h32v56a8.028,8.028,0,0,0,1.75,5ZM392,384a8,8,0,1,1-8-8A8.011,8.011,0,0,1,392,384Zm24-72H96V296H416Z"/></svg>
