<svg id="_x31_" enable-background="new 0 0 24 24" height="512" viewBox="0 0 24 24" width="512" xmlns="http://www.w3.org/2000/svg"><g><g><path d="m21.017 24c-.083 0-.167-.021-.242-.062l-3.775-2.087-3.775 2.087c-.167.093-.374.082-.53-.029s-.236-.3-.206-.489l.727-4.455-3.074-3.15c-.131-.134-.176-.33-.116-.508s.213-.307.398-.335l4.228-.646 1.896-4.038c.165-.352.74-.352.905 0l1.896 4.038 4.228.646c.185.028.339.158.398.335s.015.374-.116.508l-3.074 3.15.727 4.455c.031.189-.049.379-.206.489-.087.06-.188.091-.289.091zm-4.017-3.221c.083 0 .167.021.242.062l3.116 1.723-.602-3.688c-.025-.157.025-.316.136-.43l2.57-2.635-3.529-.539c-.165-.025-.306-.131-.377-.282l-1.556-3.313-1.556 3.315c-.071.151-.212.257-.377.282l-3.529.539 2.57 2.635c.111.114.161.273.136.43l-.602 3.688 3.116-1.723c.075-.043.159-.064.242-.064z"/></g></g><g><g><path d="m11.017 14c-.083 0-.167-.021-.242-.062l-3.775-2.087-3.775 2.087c-.167.093-.374.082-.53-.029s-.236-.3-.206-.489l.727-4.455-3.074-3.15c-.131-.135-.176-.331-.116-.508s.213-.307.398-.336l4.228-.646 1.896-4.038c.165-.352.74-.352.905 0l1.896 4.038 4.228.646c.184.029.338.158.397.336s.015.374-.116.508l-3.074 3.15.727 4.455c.031.189-.049.379-.206.489-.086.06-.187.091-.288.091zm-4.017-3.221c.083 0 .167.021.242.062l3.116 1.723-.602-3.687c-.025-.157.025-.316.136-.43l2.57-2.635-3.529-.539c-.164-.024-.306-.13-.377-.281l-1.556-3.315-1.556 3.315c-.071.151-.213.257-.377.281l-3.529.539 2.57 2.635c.111.114.161.273.136.43l-.602 3.688 3.116-1.723c.075-.042.159-.063.242-.063z"/></g></g></svg>